<mxfile host="www.draw.io" modified="2020-02-17T23:55:33.768Z" agent="Mozilla/5.0 (Windows NT 10.0; Win64; x64) AppleWebKit/537.36 (KHTML, like Gecko) Chrome/80.0.3987.106 Safari/537.36" etag="hS30XX84hbyXzuqnfmdw" version="12.7.0" type="github">
  <diagram id="C5RBs43oDa-KdzZeNtuy" name="Page-1">
    <mxGraphModel dx="2770" dy="1670" grid="1" gridSize="10" guides="1" tooltips="1" connect="1" arrows="1" fold="1" page="0" pageScale="1" pageWidth="827" pageHeight="1169" math="0" shadow="1">
      <root>
        <mxCell id="WIyWlLk6GJQsqaUBKTNV-0"/>
        <mxCell id="WIyWlLk6GJQsqaUBKTNV-1" parent="WIyWlLk6GJQsqaUBKTNV-0"/>
        <mxCell id="aQOUqq8OAmi28eRQVCnU-102" value="EVENTO" style="rounded=0;whiteSpace=wrap;html=1;" parent="WIyWlLk6GJQsqaUBKTNV-1" vertex="1">
          <mxGeometry x="441" y="320" width="160" height="80" as="geometry"/>
        </mxCell>
        <mxCell id="aQOUqq8OAmi28eRQVCnU-103" value="CONTIENE" style="rhombus;whiteSpace=wrap;html=1;" parent="WIyWlLk6GJQsqaUBKTNV-1" vertex="1">
          <mxGeometry x="481" y="160" width="80" height="80" as="geometry"/>
        </mxCell>
        <mxCell id="aQOUqq8OAmi28eRQVCnU-104" value="AGENDA" style="rounded=0;whiteSpace=wrap;html=1;" parent="WIyWlLk6GJQsqaUBKTNV-1" vertex="1">
          <mxGeometry x="441" width="160" height="80" as="geometry"/>
        </mxCell>
        <mxCell id="aQOUqq8OAmi28eRQVCnU-105" value="CONTATTO" style="rounded=0;whiteSpace=wrap;html=1;" parent="WIyWlLk6GJQsqaUBKTNV-1" vertex="1">
          <mxGeometry x="41" width="160" height="80" as="geometry"/>
        </mxCell>
        <mxCell id="aQOUqq8OAmi28eRQVCnU-106" value="POSSIEDE" style="rhombus;whiteSpace=wrap;html=1;" parent="WIyWlLk6GJQsqaUBKTNV-1" vertex="1">
          <mxGeometry x="281" width="80" height="80" as="geometry"/>
        </mxCell>
        <mxCell id="aQOUqq8OAmi28eRQVCnU-107" value="" style="endArrow=none;html=1;rounded=0;exitX=1;exitY=0.5;exitDx=0;exitDy=0;entryX=0;entryY=0.5;entryDx=0;entryDy=0;" parent="WIyWlLk6GJQsqaUBKTNV-1" source="aQOUqq8OAmi28eRQVCnU-105" target="aQOUqq8OAmi28eRQVCnU-106" edge="1">
          <mxGeometry relative="1" as="geometry">
            <mxPoint x="211" y="40" as="sourcePoint"/>
            <mxPoint x="291" y="40" as="targetPoint"/>
          </mxGeometry>
        </mxCell>
        <mxCell id="aQOUqq8OAmi28eRQVCnU-108" value="(1,n)" style="resizable=0;html=1;align=center;verticalAlign=bottom;fontSize=18;" parent="aQOUqq8OAmi28eRQVCnU-107" connectable="0" vertex="1">
          <mxGeometry x="-1" relative="1" as="geometry">
            <mxPoint x="40" as="offset"/>
          </mxGeometry>
        </mxCell>
        <mxCell id="aQOUqq8OAmi28eRQVCnU-109" value="" style="endArrow=none;html=1;rounded=0;exitX=1;exitY=0.5;exitDx=0;exitDy=0;entryX=0;entryY=0.5;entryDx=0;entryDy=0;" parent="WIyWlLk6GJQsqaUBKTNV-1" edge="1">
          <mxGeometry relative="1" as="geometry">
            <mxPoint x="361" y="40" as="sourcePoint"/>
            <mxPoint x="441" y="40" as="targetPoint"/>
          </mxGeometry>
        </mxCell>
        <mxCell id="aQOUqq8OAmi28eRQVCnU-110" value="(1,1)" style="resizable=0;html=1;align=center;verticalAlign=bottom;fontSize=18;" parent="aQOUqq8OAmi28eRQVCnU-109" connectable="0" vertex="1">
          <mxGeometry x="-1" relative="1" as="geometry">
            <mxPoint x="40" as="offset"/>
          </mxGeometry>
        </mxCell>
        <mxCell id="aQOUqq8OAmi28eRQVCnU-111" value="" style="endArrow=none;html=1;rounded=0;exitX=0.5;exitY=1;exitDx=0;exitDy=0;" parent="WIyWlLk6GJQsqaUBKTNV-1" source="aQOUqq8OAmi28eRQVCnU-104" edge="1">
          <mxGeometry relative="1" as="geometry">
            <mxPoint x="520.41" y="90" as="sourcePoint"/>
            <mxPoint x="520.4099999999999" y="160" as="targetPoint"/>
          </mxGeometry>
        </mxCell>
        <mxCell id="aQOUqq8OAmi28eRQVCnU-112" value="(0,n)" style="resizable=0;html=1;align=center;verticalAlign=bottom;fontSize=18;" parent="aQOUqq8OAmi28eRQVCnU-111" connectable="0" vertex="1">
          <mxGeometry x="-1" relative="1" as="geometry">
            <mxPoint x="20" y="40" as="offset"/>
          </mxGeometry>
        </mxCell>
        <mxCell id="aQOUqq8OAmi28eRQVCnU-113" value="" style="endArrow=none;html=1;rounded=0;exitX=0.5;exitY=1;exitDx=0;exitDy=0;entryX=0.5;entryY=0;entryDx=0;entryDy=0;" parent="WIyWlLk6GJQsqaUBKTNV-1" source="aQOUqq8OAmi28eRQVCnU-103" target="aQOUqq8OAmi28eRQVCnU-102" edge="1">
          <mxGeometry relative="1" as="geometry">
            <mxPoint x="511" y="250" as="sourcePoint"/>
            <mxPoint x="511" y="320" as="targetPoint"/>
          </mxGeometry>
        </mxCell>
        <mxCell id="aQOUqq8OAmi28eRQVCnU-114" value="(1,1)" style="resizable=0;html=1;align=center;verticalAlign=bottom;fontSize=18;" parent="aQOUqq8OAmi28eRQVCnU-113" connectable="0" vertex="1">
          <mxGeometry x="-1" relative="1" as="geometry">
            <mxPoint x="20" y="50" as="offset"/>
          </mxGeometry>
        </mxCell>
        <mxCell id="aQOUqq8OAmi28eRQVCnU-115" value="" style="endArrow=none;html=1;rounded=0;entryX=0;entryY=0.5;entryDx=0;entryDy=0;exitX=1;exitY=0.5;exitDx=0;exitDy=0;" parent="WIyWlLk6GJQsqaUBKTNV-1" source="aQOUqq8OAmi28eRQVCnU-117" target="aQOUqq8OAmi28eRQVCnU-102" edge="1">
          <mxGeometry relative="1" as="geometry">
            <mxPoint x="121" y="520" as="sourcePoint"/>
            <mxPoint x="241" y="520" as="targetPoint"/>
            <Array as="points">
              <mxPoint x="161" y="360"/>
              <mxPoint x="341" y="360"/>
            </Array>
          </mxGeometry>
        </mxCell>
        <mxCell id="aQOUqq8OAmi28eRQVCnU-116" value="(0,n)" style="resizable=0;html=1;align=center;verticalAlign=bottom;fontSize=18;" parent="aQOUqq8OAmi28eRQVCnU-115" connectable="0" vertex="1">
          <mxGeometry x="-1" relative="1" as="geometry">
            <mxPoint x="250" as="offset"/>
          </mxGeometry>
        </mxCell>
        <mxCell id="aQOUqq8OAmi28eRQVCnU-117" value="PARTECIPA" style="rhombus;whiteSpace=wrap;html=1;" parent="WIyWlLk6GJQsqaUBKTNV-1" vertex="1">
          <mxGeometry x="81" y="320" width="80" height="80" as="geometry"/>
        </mxCell>
        <mxCell id="aQOUqq8OAmi28eRQVCnU-118" value="" style="endArrow=none;html=1;rounded=0;entryX=0.5;entryY=0;entryDx=0;entryDy=0;exitX=0.5;exitY=1;exitDx=0;exitDy=0;" parent="WIyWlLk6GJQsqaUBKTNV-1" source="aQOUqq8OAmi28eRQVCnU-105" target="aQOUqq8OAmi28eRQVCnU-117" edge="1">
          <mxGeometry relative="1" as="geometry">
            <mxPoint x="121" y="80" as="sourcePoint"/>
            <mxPoint x="281" y="520" as="targetPoint"/>
            <Array as="points"/>
          </mxGeometry>
        </mxCell>
        <mxCell id="aQOUqq8OAmi28eRQVCnU-119" value="(0,n)" style="resizable=0;html=1;align=center;verticalAlign=bottom;fontSize=18;" parent="aQOUqq8OAmi28eRQVCnU-118" connectable="0" vertex="1">
          <mxGeometry x="-1" relative="1" as="geometry">
            <mxPoint x="20" y="30" as="offset"/>
          </mxGeometry>
        </mxCell>
        <mxCell id="aQOUqq8OAmi28eRQVCnU-120" value="" style="group" parent="WIyWlLk6GJQsqaUBKTNV-1" vertex="1" connectable="0">
          <mxGeometry x="-39" y="30" width="80" height="20" as="geometry"/>
        </mxCell>
        <mxCell id="aQOUqq8OAmi28eRQVCnU-121" value="" style="endArrow=none;html=1;startArrow=oval;startFill=0;" parent="aQOUqq8OAmi28eRQVCnU-120" edge="1">
          <mxGeometry width="50" height="50" relative="1" as="geometry">
            <mxPoint y="19.409999999999968" as="sourcePoint"/>
            <mxPoint x="80" y="19.409999999999968" as="targetPoint"/>
          </mxGeometry>
        </mxCell>
        <mxCell id="aQOUqq8OAmi28eRQVCnU-122" value="email" style="text;html=1;strokeColor=none;fillColor=none;align=center;verticalAlign=middle;whiteSpace=wrap;rounded=0;" parent="aQOUqq8OAmi28eRQVCnU-120" vertex="1">
          <mxGeometry x="20" width="40" height="20" as="geometry"/>
        </mxCell>
        <mxCell id="aQOUqq8OAmi28eRQVCnU-123" value="" style="group" parent="WIyWlLk6GJQsqaUBKTNV-1" vertex="1" connectable="0">
          <mxGeometry x="-39" width="80" height="20" as="geometry"/>
        </mxCell>
        <mxCell id="aQOUqq8OAmi28eRQVCnU-124" value="idContatto" style="text;html=1;strokeColor=none;fillColor=none;align=center;verticalAlign=middle;whiteSpace=wrap;rounded=0;portConstraint=south;snapToPoint=1;" parent="aQOUqq8OAmi28eRQVCnU-123" vertex="1">
          <mxGeometry x="20" width="40" height="20" as="geometry"/>
        </mxCell>
        <mxCell id="aQOUqq8OAmi28eRQVCnU-125" value="" style="endArrow=none;html=1;startArrow=oval;startFill=1;targetPortConstraint=east;" parent="aQOUqq8OAmi28eRQVCnU-123" edge="1">
          <mxGeometry width="50" height="50" relative="1" as="geometry">
            <mxPoint y="19.999999999999996" as="sourcePoint"/>
            <mxPoint x="80" y="19.999999999999996" as="targetPoint"/>
          </mxGeometry>
        </mxCell>
        <mxCell id="aQOUqq8OAmi28eRQVCnU-126" value="" style="group;rotation=90;" parent="WIyWlLk6GJQsqaUBKTNV-1" vertex="1" connectable="0">
          <mxGeometry x="61" y="-40" width="80" height="20" as="geometry"/>
        </mxCell>
        <mxCell id="aQOUqq8OAmi28eRQVCnU-127" value="" style="endArrow=none;html=1;startArrow=oval;startFill=0;" parent="aQOUqq8OAmi28eRQVCnU-126" edge="1">
          <mxGeometry width="50" height="50" relative="1" as="geometry">
            <mxPoint x="31" y="-40" as="sourcePoint"/>
            <mxPoint x="31" y="39" as="targetPoint"/>
          </mxGeometry>
        </mxCell>
        <mxCell id="aQOUqq8OAmi28eRQVCnU-128" value="cognome" style="text;html=1;strokeColor=none;fillColor=none;align=center;verticalAlign=middle;whiteSpace=wrap;rounded=0;rotation=0;direction=east;flipH=0;" parent="WIyWlLk6GJQsqaUBKTNV-1" vertex="1">
          <mxGeometry x="71" y="-110" width="40" height="20" as="geometry"/>
        </mxCell>
        <mxCell id="aQOUqq8OAmi28eRQVCnU-129" value="" style="group" parent="WIyWlLk6GJQsqaUBKTNV-1" vertex="1" connectable="0">
          <mxGeometry x="21" y="-110" width="40" height="110" as="geometry"/>
        </mxCell>
        <mxCell id="aQOUqq8OAmi28eRQVCnU-130" value="" style="group;rotation=90;" parent="aQOUqq8OAmi28eRQVCnU-129" vertex="1" connectable="0">
          <mxGeometry x="-10" y="60" width="80" height="20" as="geometry"/>
        </mxCell>
        <mxCell id="aQOUqq8OAmi28eRQVCnU-131" value="" style="endArrow=none;html=1;startArrow=oval;startFill=0;" parent="aQOUqq8OAmi28eRQVCnU-130" edge="1">
          <mxGeometry width="50" height="50" relative="1" as="geometry">
            <mxPoint x="31" y="-30" as="sourcePoint"/>
            <mxPoint x="31" y="50" as="targetPoint"/>
          </mxGeometry>
        </mxCell>
        <mxCell id="aQOUqq8OAmi28eRQVCnU-132" value="nome" style="text;html=1;strokeColor=none;fillColor=none;align=center;verticalAlign=middle;whiteSpace=wrap;rounded=0;rotation=0;direction=east;flipH=0;" parent="aQOUqq8OAmi28eRQVCnU-129" vertex="1">
          <mxGeometry width="40" height="20" as="geometry"/>
        </mxCell>
        <mxCell id="aQOUqq8OAmi28eRQVCnU-133" value="" style="group;rotation=90;" parent="WIyWlLk6GJQsqaUBKTNV-1" vertex="1" connectable="0">
          <mxGeometry x="126" y="-50" width="60" height="20" as="geometry"/>
        </mxCell>
        <mxCell id="aQOUqq8OAmi28eRQVCnU-134" value="" style="endArrow=none;html=1;startArrow=oval;startFill=0;" parent="aQOUqq8OAmi28eRQVCnU-133" edge="1">
          <mxGeometry width="50" height="50" relative="1" as="geometry">
            <mxPoint x="23.25" y="-30" as="sourcePoint"/>
            <mxPoint x="23.25" y="50" as="targetPoint"/>
          </mxGeometry>
        </mxCell>
        <mxCell id="aQOUqq8OAmi28eRQVCnU-135" value="datanascita" style="text;html=1;strokeColor=none;fillColor=none;align=center;verticalAlign=middle;whiteSpace=wrap;rounded=0;rotation=0;direction=east;flipH=0;" parent="WIyWlLk6GJQsqaUBKTNV-1" vertex="1">
          <mxGeometry x="141" y="-110" width="30" height="20" as="geometry"/>
        </mxCell>
        <mxCell id="aQOUqq8OAmi28eRQVCnU-136" value="" style="group" parent="WIyWlLk6GJQsqaUBKTNV-1" vertex="1" connectable="0">
          <mxGeometry x="171" y="-110" width="56.25" height="110" as="geometry"/>
        </mxCell>
        <mxCell id="aQOUqq8OAmi28eRQVCnU-137" value="" style="group;rotation=90;" parent="aQOUqq8OAmi28eRQVCnU-136" vertex="1" connectable="0">
          <mxGeometry x="-11.25" y="63.75" width="67.5" height="20" as="geometry"/>
        </mxCell>
        <mxCell id="aQOUqq8OAmi28eRQVCnU-138" value="" style="endArrow=none;html=1;startArrow=oval;startFill=0;" parent="aQOUqq8OAmi28eRQVCnU-137" edge="1">
          <mxGeometry width="50" height="50" relative="1" as="geometry">
            <mxPoint x="61.25" y="-23.75" as="sourcePoint"/>
            <mxPoint x="38.0053125" y="46" as="targetPoint"/>
          </mxGeometry>
        </mxCell>
        <mxCell id="aQOUqq8OAmi28eRQVCnU-139" value="cellulare" style="text;html=1;strokeColor=none;fillColor=none;align=center;verticalAlign=middle;whiteSpace=wrap;rounded=0;rotation=0;direction=east;flipH=0;" parent="aQOUqq8OAmi28eRQVCnU-136" vertex="1">
          <mxGeometry x="40" y="10" width="30" height="20" as="geometry"/>
        </mxCell>
        <mxCell id="aQOUqq8OAmi28eRQVCnU-140" value="" style="group;flipH=0;flipV=0;rotation=0;" parent="WIyWlLk6GJQsqaUBKTNV-1" vertex="1" connectable="0">
          <mxGeometry x="601" width="80" height="20" as="geometry"/>
        </mxCell>
        <mxCell id="aQOUqq8OAmi28eRQVCnU-141" value="" style="endArrow=none;html=1;startArrow=oval;startFill=1;targetPortConstraint=east;" parent="aQOUqq8OAmi28eRQVCnU-140" edge="1">
          <mxGeometry width="50" height="50" relative="1" as="geometry">
            <mxPoint x="80" y="20" as="sourcePoint"/>
            <mxPoint y="20" as="targetPoint"/>
          </mxGeometry>
        </mxCell>
        <mxCell id="aQOUqq8OAmi28eRQVCnU-142" value="idAgenda" style="text;html=1;strokeColor=none;fillColor=none;align=center;verticalAlign=middle;whiteSpace=wrap;rounded=0;portConstraint=south;snapToPoint=1;" parent="aQOUqq8OAmi28eRQVCnU-140" vertex="1">
          <mxGeometry x="20" width="40" height="20" as="geometry"/>
        </mxCell>
        <mxCell id="aQOUqq8OAmi28eRQVCnU-143" value="" style="endArrow=none;html=1;rounded=0;exitX=1;exitY=0.5;exitDx=0;exitDy=0;" parent="WIyWlLk6GJQsqaUBKTNV-1" source="aQOUqq8OAmi28eRQVCnU-102" target="aQOUqq8OAmi28eRQVCnU-145" edge="1">
          <mxGeometry relative="1" as="geometry">
            <mxPoint x="601" y="360" as="sourcePoint"/>
            <mxPoint x="680.9999999999995" y="360" as="targetPoint"/>
          </mxGeometry>
        </mxCell>
        <mxCell id="aQOUqq8OAmi28eRQVCnU-144" value="(1,n)" style="resizable=0;html=1;align=center;verticalAlign=bottom;fontSize=18;" parent="aQOUqq8OAmi28eRQVCnU-143" connectable="0" vertex="1">
          <mxGeometry x="-1" relative="1" as="geometry">
            <mxPoint x="40" as="offset"/>
          </mxGeometry>
        </mxCell>
        <mxCell id="aQOUqq8OAmi28eRQVCnU-145" value="HA" style="rhombus;whiteSpace=wrap;html=1;" parent="WIyWlLk6GJQsqaUBKTNV-1" vertex="1">
          <mxGeometry x="720" y="320" width="80" height="80" as="geometry"/>
        </mxCell>
        <mxCell id="aQOUqq8OAmi28eRQVCnU-149" value="" style="group" parent="WIyWlLk6GJQsqaUBKTNV-1" vertex="1" connectable="0">
          <mxGeometry x="601" y="40" width="80" height="20" as="geometry"/>
        </mxCell>
        <mxCell id="aQOUqq8OAmi28eRQVCnU-150" value="" style="endArrow=none;html=1;startArrow=oval;startFill=0;" parent="aQOUqq8OAmi28eRQVCnU-149" edge="1">
          <mxGeometry width="50" height="50" relative="1" as="geometry">
            <mxPoint x="80" y="19.409999999999968" as="sourcePoint"/>
            <mxPoint y="19.409999999999968" as="targetPoint"/>
          </mxGeometry>
        </mxCell>
        <mxCell id="aQOUqq8OAmi28eRQVCnU-151" value="Nome" style="text;html=1;strokeColor=none;fillColor=none;align=center;verticalAlign=middle;whiteSpace=wrap;rounded=0;" parent="aQOUqq8OAmi28eRQVCnU-149" vertex="1">
          <mxGeometry x="20" width="40" height="20" as="geometry"/>
        </mxCell>
        <mxCell id="aQOUqq8OAmi28eRQVCnU-152" value="" style="group" parent="WIyWlLk6GJQsqaUBKTNV-1" vertex="1" connectable="0">
          <mxGeometry x="401" y="450" width="80" height="20" as="geometry"/>
        </mxCell>
        <mxCell id="aQOUqq8OAmi28eRQVCnU-153" value="Nome" style="text;html=1;strokeColor=none;fillColor=none;align=center;verticalAlign=middle;whiteSpace=wrap;rounded=0;" parent="aQOUqq8OAmi28eRQVCnU-152" vertex="1">
          <mxGeometry x="40" width="40" height="20" as="geometry"/>
        </mxCell>
        <mxCell id="aQOUqq8OAmi28eRQVCnU-154" value="" style="endArrow=none;html=1;startArrow=oval;startFill=0;entryX=0.144;entryY=1.013;entryDx=0;entryDy=0;entryPerimeter=0;" parent="WIyWlLk6GJQsqaUBKTNV-1" target="aQOUqq8OAmi28eRQVCnU-102" edge="1">
          <mxGeometry width="50" height="50" relative="1" as="geometry">
            <mxPoint x="464" y="440" as="sourcePoint"/>
            <mxPoint x="450.5" y="389.99999999999994" as="targetPoint"/>
            <Array as="points"/>
          </mxGeometry>
        </mxCell>
        <mxCell id="aQOUqq8OAmi28eRQVCnU-155" value="idEvento" style="text;html=1;strokeColor=none;fillColor=none;align=center;verticalAlign=middle;whiteSpace=wrap;rounded=0;portConstraint=south;snapToPoint=1;" parent="WIyWlLk6GJQsqaUBKTNV-1" vertex="1">
          <mxGeometry x="361" y="430" width="40" height="20" as="geometry"/>
        </mxCell>
        <mxCell id="aQOUqq8OAmi28eRQVCnU-156" value="" style="endArrow=none;html=1;startArrow=oval;startFill=1;targetPortConstraint=east;entryX=-0.012;entryY=0.925;entryDx=0;entryDy=0;entryPerimeter=0;" parent="WIyWlLk6GJQsqaUBKTNV-1" target="aQOUqq8OAmi28eRQVCnU-102" edge="1">
          <mxGeometry width="50" height="50" relative="1" as="geometry">
            <mxPoint x="391" y="420" as="sourcePoint"/>
            <mxPoint x="431" y="250" as="targetPoint"/>
            <Array as="points"/>
          </mxGeometry>
        </mxCell>
        <mxCell id="aQOUqq8OAmi28eRQVCnU-157" value="Descrizione" style="text;html=1;strokeColor=none;fillColor=none;align=center;verticalAlign=middle;whiteSpace=wrap;rounded=0;" parent="WIyWlLk6GJQsqaUBKTNV-1" vertex="1">
          <mxGeometry x="571" y="450" width="40" height="20" as="geometry"/>
        </mxCell>
        <mxCell id="aQOUqq8OAmi28eRQVCnU-158" value="" style="endArrow=none;html=1;startArrow=oval;startFill=0;entryX=0.913;entryY=1.013;entryDx=0;entryDy=0;entryPerimeter=0;" parent="WIyWlLk6GJQsqaUBKTNV-1" target="aQOUqq8OAmi28eRQVCnU-102" edge="1">
          <mxGeometry width="50" height="50" relative="1" as="geometry">
            <mxPoint x="587" y="440" as="sourcePoint"/>
            <mxPoint x="595" y="405" as="targetPoint"/>
          </mxGeometry>
        </mxCell>
        <mxCell id="aQOUqq8OAmi28eRQVCnU-159" value="Luogo" style="text;html=1;strokeColor=none;fillColor=none;align=center;verticalAlign=middle;whiteSpace=wrap;rounded=0;" parent="WIyWlLk6GJQsqaUBKTNV-1" vertex="1">
          <mxGeometry x="651" y="430" width="40" height="20" as="geometry"/>
        </mxCell>
        <mxCell id="aQOUqq8OAmi28eRQVCnU-160" value="" style="endArrow=none;html=1;startArrow=oval;startFill=0;entryX=1;entryY=1;entryDx=0;entryDy=0;" parent="WIyWlLk6GJQsqaUBKTNV-1" target="aQOUqq8OAmi28eRQVCnU-102" edge="1">
          <mxGeometry width="50" height="50" relative="1" as="geometry">
            <mxPoint x="650.9999999999995" y="430" as="sourcePoint"/>
            <mxPoint x="601" y="400" as="targetPoint"/>
          </mxGeometry>
        </mxCell>
        <mxCell id="aQOUqq8OAmi28eRQVCnU-163" value="PROMEMORIA" style="rounded=0;whiteSpace=wrap;html=1;" parent="WIyWlLk6GJQsqaUBKTNV-1" vertex="1">
          <mxGeometry x="880" y="634" width="160" height="80" as="geometry"/>
        </mxCell>
        <mxCell id="aQOUqq8OAmi28eRQVCnU-170" value="" style="group" parent="WIyWlLk6GJQsqaUBKTNV-1" vertex="1" connectable="0">
          <mxGeometry x="800" y="640" width="80" height="20" as="geometry"/>
        </mxCell>
        <mxCell id="aQOUqq8OAmi28eRQVCnU-171" value="id" style="text;html=1;strokeColor=none;fillColor=none;align=center;verticalAlign=middle;whiteSpace=wrap;rounded=0;portConstraint=south;snapToPoint=1;" parent="aQOUqq8OAmi28eRQVCnU-170" vertex="1">
          <mxGeometry x="20" width="40" height="20" as="geometry"/>
        </mxCell>
        <mxCell id="aQOUqq8OAmi28eRQVCnU-172" value="" style="endArrow=none;html=1;startArrow=oval;startFill=1;targetPortConstraint=east;" parent="aQOUqq8OAmi28eRQVCnU-170" edge="1">
          <mxGeometry width="50" height="50" relative="1" as="geometry">
            <mxPoint y="19.999999999999996" as="sourcePoint"/>
            <mxPoint x="80" y="19.999999999999996" as="targetPoint"/>
          </mxGeometry>
        </mxCell>
        <mxCell id="aQOUqq8OAmi28eRQVCnU-174" value="" style="endArrow=none;html=1;startArrow=oval;startFill=0;entryX=1;entryY=0.75;entryDx=0;entryDy=0;" parent="WIyWlLk6GJQsqaUBKTNV-1" edge="1">
          <mxGeometry width="50" height="50" relative="1" as="geometry">
            <mxPoint x="800" y="693" as="sourcePoint"/>
            <mxPoint x="880" y="693" as="targetPoint"/>
          </mxGeometry>
        </mxCell>
        <mxCell id="aQOUqq8OAmi28eRQVCnU-175" value="Testo" style="text;html=1;strokeColor=none;fillColor=none;align=center;verticalAlign=middle;whiteSpace=wrap;rounded=0;" parent="WIyWlLk6GJQsqaUBKTNV-1" vertex="1">
          <mxGeometry x="820" y="674" width="40" height="20" as="geometry"/>
        </mxCell>
        <mxCell id="aQOUqq8OAmi28eRQVCnU-176" value="" style="group" parent="WIyWlLk6GJQsqaUBKTNV-1" vertex="1" connectable="0">
          <mxGeometry x="401" y="300" width="80" height="20" as="geometry"/>
        </mxCell>
        <mxCell id="aQOUqq8OAmi28eRQVCnU-177" value="" style="endArrow=none;html=1;startArrow=oval;startFill=0;" parent="aQOUqq8OAmi28eRQVCnU-176" target="aQOUqq8OAmi28eRQVCnU-102" edge="1">
          <mxGeometry width="50" height="50" relative="1" as="geometry">
            <mxPoint x="10" y="-20" as="sourcePoint"/>
            <mxPoint x="80" y="19" as="targetPoint"/>
          </mxGeometry>
        </mxCell>
        <mxCell id="aQOUqq8OAmi28eRQVCnU-178" value="Immagine" style="text;html=1;strokeColor=none;fillColor=none;align=center;verticalAlign=middle;whiteSpace=wrap;rounded=0;" parent="WIyWlLk6GJQsqaUBKTNV-1" vertex="1">
          <mxGeometry x="386" y="250" width="40" height="20" as="geometry"/>
        </mxCell>
        <mxCell id="aQOUqq8OAmi28eRQVCnU-180" value="" style="endArrow=none;html=1;startArrow=oval;startFill=0;entryX=0.5;entryY=0;entryDx=0;entryDy=0;" parent="WIyWlLk6GJQsqaUBKTNV-1" edge="1">
          <mxGeometry width="50" height="50" relative="1" as="geometry">
            <mxPoint x="480" y="-50" as="sourcePoint"/>
            <mxPoint x="480" as="targetPoint"/>
          </mxGeometry>
        </mxCell>
        <mxCell id="aQOUqq8OAmi28eRQVCnU-181" value="Colore" style="text;html=1;strokeColor=none;fillColor=none;align=center;verticalAlign=middle;whiteSpace=wrap;rounded=0;" parent="WIyWlLk6GJQsqaUBKTNV-1" vertex="1">
          <mxGeometry x="460" y="-80" width="40" height="20" as="geometry"/>
        </mxCell>
        <mxCell id="aQOUqq8OAmi28eRQVCnU-182" value="" style="endArrow=none;html=1;startArrow=oval;startFill=0;entryX=0.681;entryY=0.013;entryDx=0;entryDy=0;entryPerimeter=0;" parent="WIyWlLk6GJQsqaUBKTNV-1" edge="1">
          <mxGeometry width="50" height="50" relative="1" as="geometry">
            <mxPoint x="547" y="-50" as="sourcePoint"/>
            <mxPoint x="546.96" y="1.0399999999999636" as="targetPoint"/>
          </mxGeometry>
        </mxCell>
        <mxCell id="aQOUqq8OAmi28eRQVCnU-183" value="Lav_Pers" style="text;html=1;strokeColor=none;fillColor=none;align=center;verticalAlign=middle;whiteSpace=wrap;rounded=0;" parent="WIyWlLk6GJQsqaUBKTNV-1" vertex="1">
          <mxGeometry x="531" y="-80" width="40" height="20" as="geometry"/>
        </mxCell>
        <mxCell id="aQOUqq8OAmi28eRQVCnU-190" value="" style="endArrow=none;html=1;rounded=0;exitX=0.5;exitY=1;exitDx=0;exitDy=0;entryX=0.5;entryY=0;entryDx=0;entryDy=0;" parent="WIyWlLk6GJQsqaUBKTNV-1" source="aQOUqq8OAmi28eRQVCnU-161" target="aQOUqq8OAmi28eRQVCnU-163" edge="1">
          <mxGeometry relative="1" as="geometry">
            <mxPoint x="731" y="509.5" as="sourcePoint"/>
            <mxPoint x="841" y="509.5" as="targetPoint"/>
          </mxGeometry>
        </mxCell>
        <mxCell id="aQOUqq8OAmi28eRQVCnU-191" value="(0,n)" style="resizable=0;html=1;align=center;verticalAlign=bottom;fontSize=18;" parent="aQOUqq8OAmi28eRQVCnU-190" connectable="0" vertex="1">
          <mxGeometry x="-1" relative="1" as="geometry">
            <mxPoint x="20" y="-90" as="offset"/>
          </mxGeometry>
        </mxCell>
        <mxCell id="_KPWYCvvKj7IG9VDtq83-0" value="ISTANZA_EVENTO" style="rounded=0;whiteSpace=wrap;html=1;" vertex="1" parent="WIyWlLk6GJQsqaUBKTNV-1">
          <mxGeometry x="879" y="320" width="160" height="80" as="geometry"/>
        </mxCell>
        <mxCell id="_KPWYCvvKj7IG9VDtq83-1" value="" style="endArrow=none;html=1;rounded=0;entryX=0;entryY=0.5;entryDx=0;entryDy=0;exitX=1;exitY=0.5;exitDx=0;exitDy=0;" edge="1" parent="WIyWlLk6GJQsqaUBKTNV-1" source="aQOUqq8OAmi28eRQVCnU-145" target="_KPWYCvvKj7IG9VDtq83-0">
          <mxGeometry relative="1" as="geometry">
            <mxPoint x="839" y="360" as="sourcePoint"/>
            <mxPoint x="1200" y="360" as="targetPoint"/>
          </mxGeometry>
        </mxCell>
        <mxCell id="_KPWYCvvKj7IG9VDtq83-2" value="(1,1)" style="resizable=0;html=1;align=center;verticalAlign=bottom;fontSize=18;" connectable="0" vertex="1" parent="_KPWYCvvKj7IG9VDtq83-1">
          <mxGeometry x="-1" relative="1" as="geometry">
            <mxPoint x="50" as="offset"/>
          </mxGeometry>
        </mxCell>
        <mxCell id="aQOUqq8OAmi28eRQVCnU-161" value="EV_PR" style="rhombus;whiteSpace=wrap;html=1;" parent="WIyWlLk6GJQsqaUBKTNV-1" vertex="1">
          <mxGeometry x="920" y="480" width="80" height="80" as="geometry"/>
        </mxCell>
        <mxCell id="_KPWYCvvKj7IG9VDtq83-3" value="" style="endArrow=none;html=1;rounded=0;exitX=0.5;exitY=1;exitDx=0;exitDy=0;entryX=0.5;entryY=0;entryDx=0;entryDy=0;" edge="1" parent="WIyWlLk6GJQsqaUBKTNV-1" source="_KPWYCvvKj7IG9VDtq83-0" target="aQOUqq8OAmi28eRQVCnU-161">
          <mxGeometry relative="1" as="geometry">
            <mxPoint x="969" y="390" as="sourcePoint"/>
            <mxPoint x="969" y="594" as="targetPoint"/>
          </mxGeometry>
        </mxCell>
        <mxCell id="_KPWYCvvKj7IG9VDtq83-4" value="(1,1)" style="resizable=0;html=1;align=center;verticalAlign=bottom;fontSize=18;" connectable="0" vertex="1" parent="_KPWYCvvKj7IG9VDtq83-3">
          <mxGeometry x="-1" relative="1" as="geometry">
            <mxPoint x="20" y="190" as="offset"/>
          </mxGeometry>
        </mxCell>
        <mxCell id="_KPWYCvvKj7IG9VDtq83-8" value="" style="endArrow=none;html=1;startArrow=oval;startFill=0;targetPortConstraint=east;" edge="1" parent="WIyWlLk6GJQsqaUBKTNV-1">
          <mxGeometry width="50" height="50" relative="1" as="geometry">
            <mxPoint x="944" y="260" as="sourcePoint"/>
            <mxPoint x="944" y="320" as="targetPoint"/>
          </mxGeometry>
        </mxCell>
        <mxCell id="_KPWYCvvKj7IG9VDtq83-9" value="Data" style="text;html=1;strokeColor=none;fillColor=none;align=center;verticalAlign=middle;whiteSpace=wrap;rounded=0;portConstraint=south;snapToPoint=1;" vertex="1" parent="WIyWlLk6GJQsqaUBKTNV-1">
          <mxGeometry x="922" y="230" width="40" height="20" as="geometry"/>
        </mxCell>
        <mxCell id="_KPWYCvvKj7IG9VDtq83-10" value="" style="endArrow=none;html=1;startArrow=oval;startFill=0;" edge="1" parent="WIyWlLk6GJQsqaUBKTNV-1">
          <mxGeometry width="50" height="50" relative="1" as="geometry">
            <mxPoint x="991" y="260" as="sourcePoint"/>
            <mxPoint x="991" y="320" as="targetPoint"/>
          </mxGeometry>
        </mxCell>
        <mxCell id="_KPWYCvvKj7IG9VDtq83-11" value="Ora" style="text;html=1;strokeColor=none;fillColor=none;align=center;verticalAlign=middle;whiteSpace=wrap;rounded=0;" vertex="1" parent="WIyWlLk6GJQsqaUBKTNV-1">
          <mxGeometry x="970" y="230" width="40" height="20" as="geometry"/>
        </mxCell>
        <mxCell id="_KPWYCvvKj7IG9VDtq83-14" value="" style="endArrow=none;html=1;startArrow=oval;startFill=0;targetPortConstraint=east;entryX=1.006;entryY=0.338;entryDx=0;entryDy=0;entryPerimeter=0;" edge="1" parent="WIyWlLk6GJQsqaUBKTNV-1" target="aQOUqq8OAmi28eRQVCnU-163">
          <mxGeometry width="50" height="50" relative="1" as="geometry">
            <mxPoint x="1121" y="661" as="sourcePoint"/>
            <mxPoint x="1113" y="670" as="targetPoint"/>
          </mxGeometry>
        </mxCell>
        <mxCell id="_KPWYCvvKj7IG9VDtq83-15" value="Data" style="text;html=1;strokeColor=none;fillColor=none;align=center;verticalAlign=middle;whiteSpace=wrap;rounded=0;portConstraint=south;snapToPoint=1;" vertex="1" parent="WIyWlLk6GJQsqaUBKTNV-1">
          <mxGeometry x="1131" y="650" width="40" height="20" as="geometry"/>
        </mxCell>
        <mxCell id="_KPWYCvvKj7IG9VDtq83-16" value="" style="endArrow=none;html=1;startArrow=oval;startFill=0;entryX=1;entryY=0.75;entryDx=0;entryDy=0;" edge="1" parent="WIyWlLk6GJQsqaUBKTNV-1" target="aQOUqq8OAmi28eRQVCnU-163">
          <mxGeometry width="50" height="50" relative="1" as="geometry">
            <mxPoint x="1121" y="694" as="sourcePoint"/>
            <mxPoint x="1160" y="670" as="targetPoint"/>
          </mxGeometry>
        </mxCell>
        <mxCell id="_KPWYCvvKj7IG9VDtq83-17" value="Ora" style="text;html=1;strokeColor=none;fillColor=none;align=center;verticalAlign=middle;whiteSpace=wrap;rounded=0;" vertex="1" parent="WIyWlLk6GJQsqaUBKTNV-1">
          <mxGeometry x="1131" y="684" width="40" height="20" as="geometry"/>
        </mxCell>
      </root>
    </mxGraphModel>
  </diagram>
</mxfile>
